<svg viewBox="0 0 81 61" fill="none" xmlns="http://www.w3.org/2000/svg">
<path d="M34.9096 1.95122C37.8674 -0.415025 42.3804 -0.727547 45.4758 1.55685C50.9561 5.5936 56.1537 10.0061 61.6377 14.0429C65.202 16.9374 68.8443 19.739 72.4867 22.5405C75.106 24.9217 78.1903 26.7298 80.7909 29.137C81.3304 29.6058 80.6905 30.2346 80.3891 30.6364C78.4656 32.8389 76.8993 35.3316 74.8976 37.4635C74.3916 37.9881 73.7331 37.2403 73.2866 36.9761C68.264 32.9282 63.0515 29.1184 58.0586 25.0333C52.1281 20.6431 46.5287 15.825 40.5647 11.4795C30.1957 19.2367 20.1615 27.4256 9.92633 35.354C8.85855 36.139 7.88749 37.0989 6.67089 37.6532C6.00119 37.6421 5.70727 36.9501 5.31661 36.5259C3.57169 34.1671 1.60726 31.9683 0 29.509C0.591561 28.8728 1.22405 28.2738 1.94583 27.7827C4.24511 26.2387 6.1835 24.2296 8.49393 22.6968C17.2371 15.7059 26.1738 8.9495 34.9096 1.95122Z" fill="#CA8E45"/>
<path d="M13.2493 2.76911C16.8694 2.76167 20.4895 2.73191 24.1095 2.784C24.1021 3.94108 24.0872 5.09815 24.0053 6.25523C20.3555 8.90423 16.9587 11.8955 13.2717 14.4962C13.1973 10.5896 13.2456 6.67937 13.2493 2.76911Z" fill="#2E1F64"/>
<path d="M44.5102 33.2038C46.6979 30.3129 48.8781 27.396 51.2853 24.6875C55.9136 28.5457 60.7577 32.1397 65.4307 35.942C66.8556 37.2293 67.8006 39.1008 67.7969 41.0392C67.8267 44.6406 67.8006 48.2421 67.8081 51.8435C67.8788 55.0841 65.866 58.2465 62.9565 59.6454C61.5613 60.356 59.969 60.5421 58.4249 60.5718C46.3928 60.5607 34.3644 60.5644 22.336 60.5681C18.6415 60.6723 14.9917 58.3358 13.7788 54.805C13.057 52.7811 13.2505 50.6046 13.2356 48.495C13.2617 44.782 13.1947 41.0689 13.2691 37.3558C16.8892 34.6324 20.3381 31.6783 24.0325 29.0628C24.1144 35.9346 24.0139 42.8101 24.0772 49.6856C35.0601 49.7154 46.0431 49.7377 57.026 49.6707C57.067 47.5314 57.0112 45.3884 57.067 43.2491C53.0005 39.763 48.6809 36.5671 44.5102 33.2038Z" fill="#2E1F64"/>
</svg>